<mxfile host="Electron" agent="Mozilla/5.0 (Macintosh; Intel Mac OS X 10_15_7) AppleWebKit/537.36 (KHTML, like Gecko) draw.io/26.1.1 Chrome/132.0.6834.210 Electron/34.3.3 Safari/537.36" version="26.1.1">
  <diagram name="Page-1" id="DgA3ZtMDt0O42Msa5uSH">
    <mxGraphModel dx="1114" dy="878" grid="1" gridSize="10" guides="1" tooltips="1" connect="1" arrows="1" fold="1" page="1" pageScale="1" pageWidth="827" pageHeight="1169" math="0" shadow="0">
      <root>
        <mxCell id="0" />
        <mxCell id="1" parent="0" />
        <mxCell id="wpTgsdjQKy4fmFG88Dtj-6" style="rounded=0;orthogonalLoop=1;jettySize=auto;html=1;entryX=0.5;entryY=0;entryDx=0;entryDy=0;endArrow=block;endFill=1;exitX=0.5;exitY=1;exitDx=0;exitDy=0;" edge="1" parent="1" source="wpTgsdjQKy4fmFG88Dtj-1" target="wpTgsdjQKy4fmFG88Dtj-2">
          <mxGeometry relative="1" as="geometry" />
        </mxCell>
        <mxCell id="wpTgsdjQKy4fmFG88Dtj-7" style="rounded=0;orthogonalLoop=1;jettySize=auto;html=1;entryX=0.5;entryY=0;entryDx=0;entryDy=0;endArrow=block;endFill=1;exitX=0.5;exitY=1;exitDx=0;exitDy=0;" edge="1" parent="1" source="wpTgsdjQKy4fmFG88Dtj-1" target="wpTgsdjQKy4fmFG88Dtj-3">
          <mxGeometry relative="1" as="geometry" />
        </mxCell>
        <mxCell id="wpTgsdjQKy4fmFG88Dtj-1" value="여러 서버로부터&lt;div&gt;데이터 다운로드 후&amp;nbsp;&lt;/div&gt;&lt;div&gt;변환하는 코루틴&lt;/div&gt;" style="rounded=1;whiteSpace=wrap;html=1;" vertex="1" parent="1">
          <mxGeometry x="260" y="50" width="120" height="60" as="geometry" />
        </mxCell>
        <mxCell id="wpTgsdjQKy4fmFG88Dtj-8" style="rounded=0;orthogonalLoop=1;jettySize=auto;html=1;entryX=0.5;entryY=0;entryDx=0;entryDy=0;endArrow=block;endFill=1;exitX=0.5;exitY=1;exitDx=0;exitDy=0;" edge="1" parent="1" source="wpTgsdjQKy4fmFG88Dtj-2" target="wpTgsdjQKy4fmFG88Dtj-4">
          <mxGeometry relative="1" as="geometry" />
        </mxCell>
        <mxCell id="wpTgsdjQKy4fmFG88Dtj-9" style="rounded=0;orthogonalLoop=1;jettySize=auto;html=1;entryX=0.5;entryY=0;entryDx=0;entryDy=0;endArrow=block;endFill=1;exitX=0.5;exitY=1;exitDx=0;exitDy=0;" edge="1" parent="1" source="wpTgsdjQKy4fmFG88Dtj-2" target="wpTgsdjQKy4fmFG88Dtj-5">
          <mxGeometry relative="1" as="geometry" />
        </mxCell>
        <mxCell id="wpTgsdjQKy4fmFG88Dtj-2" value="여러 서버로부터&lt;div&gt;데이터를 다운로드하는 코루틴&lt;/div&gt;" style="rounded=1;whiteSpace=wrap;html=1;" vertex="1" parent="1">
          <mxGeometry x="130" y="170" width="160" height="50" as="geometry" />
        </mxCell>
        <mxCell id="wpTgsdjQKy4fmFG88Dtj-3" value="데이터를 변환하는 코루틴" style="rounded=1;whiteSpace=wrap;html=1;" vertex="1" parent="1">
          <mxGeometry x="340" y="170" width="150" height="50" as="geometry" />
        </mxCell>
        <mxCell id="wpTgsdjQKy4fmFG88Dtj-4" value="서버 1로부터&lt;div&gt;데이터를 다운로드하는 코루틴&lt;/div&gt;" style="rounded=1;whiteSpace=wrap;html=1;" vertex="1" parent="1">
          <mxGeometry x="40" y="280" width="160" height="50" as="geometry" />
        </mxCell>
        <mxCell id="wpTgsdjQKy4fmFG88Dtj-5" value="서버 2로부터&lt;div&gt;데이터를 다운로드하는 코루틴&lt;/div&gt;" style="rounded=1;whiteSpace=wrap;html=1;" vertex="1" parent="1">
          <mxGeometry x="220" y="280" width="160" height="50" as="geometry" />
        </mxCell>
        <mxCell id="wpTgsdjQKy4fmFG88Dtj-10" value="" style="endArrow=block;html=1;rounded=0;endFill=1;strokeWidth=2;" edge="1" parent="1">
          <mxGeometry width="50" height="50" relative="1" as="geometry">
            <mxPoint x="520" y="40" as="sourcePoint" />
            <mxPoint x="520" y="330" as="targetPoint" />
          </mxGeometry>
        </mxCell>
        <mxCell id="wpTgsdjQKy4fmFG88Dtj-11" value="부모" style="text;html=1;align=center;verticalAlign=middle;whiteSpace=wrap;rounded=0;fontStyle=1" vertex="1" parent="1">
          <mxGeometry x="510" y="30" width="60" height="30" as="geometry" />
        </mxCell>
        <mxCell id="wpTgsdjQKy4fmFG88Dtj-13" value="자식" style="text;html=1;align=center;verticalAlign=middle;whiteSpace=wrap;rounded=0;fontStyle=1" vertex="1" parent="1">
          <mxGeometry x="510" y="290" width="60" height="30" as="geometry" />
        </mxCell>
      </root>
    </mxGraphModel>
  </diagram>
</mxfile>
